<svg width="295" height="220" viewBox="0 0 295 220" fill="none" xmlns="http://www.w3.org/2000/svg">
<path d="M43.5912 202.746L206.425 185.442C212.602 184.864 217.089 179.093 216.447 172.552L204.217 28.3919C203.808 24.2306 199.989 20.8174 195.685 20.768L6.37459 18.355C2.07115 18.3059 -0.710851 22.0583 0.159291 26.7367L29.9267 190.479C31.2961 197.832 37.414 203.324 43.5912 202.746Z" fill="#4E97EE" fill-opacity="0.4"/>
<path d="M53.2988 192.628L219.37 174.883C225.67 174.29 230.247 168.372 229.592 161.665L217.118 13.8303C216.701 9.56301 212.806 6.06277 208.417 6.01216L15.3422 3.5376C10.9531 3.48726 8.11583 7.33534 9.00328 12.1329L39.3626 180.048C40.7592 187.589 46.9988 193.221 53.2988 192.628Z" fill="#E7F4FF"/>
<path opacity="0.4" d="M205.349 176.615L219.37 174.882C225.671 174.29 230.247 168.372 229.592 161.664L217.119 13.83C216.702 9.56266 212.807 6.06243 208.418 6.01182L185.358 5.31934L205.349 176.615Z" fill="#9FD1FF"/>
<path opacity="0.2" d="M218.193 27.5176L11.8457 27.5202L14.5839 45.3088L219.479 40.6678L218.193 27.5176Z" fill="#86C6FF"/>
<path d="M31.2295 61.5283L53.932 174.683" stroke="#4E97EE" stroke-width="3.174" stroke-miterlimit="10"/>
<path d="M180.173 108.725L52.3932 114.824C51.1369 114.884 49.9112 113.883 49.6552 112.589L40.0792 64.1515C39.8235 62.8571 40.659 61.784 41.9457 61.7544L172.809 58.773C173.434 58.7599 174.043 58.9685 174.529 59.3618C175.014 59.7551 175.345 60.3076 175.461 60.9213L182.125 106.415C182.169 106.698 182.152 106.988 182.075 107.264C181.997 107.54 181.861 107.797 181.676 108.016C181.491 108.235 181.261 108.411 181.002 108.534C180.742 108.656 180.459 108.721 180.173 108.725Z" fill="#F2F9FF"/>
<path d="M58.9982 114.508L52.2644 114.829C51.008 114.889 49.7821 113.888 49.5261 112.594L39.9475 64.1548C39.6915 62.8604 40.527 61.7873 41.8137 61.7577L48.7101 61.6006L58.9982 114.508Z" fill="#6DB2F8"/>
<path d="M48.3405 85.9465C48.4204 86.3516 48.1008 86.6922 47.6302 86.7093C47.4085 86.7225 47.1888 86.66 47.0074 86.532C46.8259 86.404 46.6933 86.2181 46.6314 86.0048C46.5515 85.5994 46.8711 85.2591 47.3417 85.242C47.5634 85.2286 47.7831 85.2911 47.9646 85.4191C48.1461 85.5471 48.2787 85.7331 48.3405 85.9465Z" fill="#7CBAF9"/>
<path d="M50.8034 85.8625C50.8833 86.267 50.5637 86.6082 50.0923 86.6245C49.8707 86.638 49.6512 86.5757 49.4698 86.4478C49.2884 86.3199 49.1559 86.134 49.0943 85.9208C49.0144 85.5159 49.334 85.175 49.8054 85.159C50.0269 85.1455 50.2464 85.2078 50.4278 85.3356C50.6092 85.4635 50.7417 85.6493 50.8034 85.8625Z" fill="#7CBAF9"/>
<path d="M48.7811 88.1896C48.861 88.5947 48.543 88.9354 48.0715 88.9532C47.85 88.9668 47.6305 88.9045 47.4491 88.7766C47.2677 88.6487 47.1354 88.4628 47.0738 88.2495C46.9939 87.8444 47.3117 87.5025 47.7831 87.4862C48.0046 87.4726 48.2242 87.5348 48.4056 87.6627C48.587 87.7906 48.7194 87.9764 48.7811 88.1896Z" fill="#7CBAF9"/>
<path d="M51.2412 88.1029C51.3211 88.5075 51.0015 88.8487 50.5309 88.8657C50.3095 88.8794 50.0901 88.8172 49.9089 88.6895C49.7276 88.5617 49.5953 88.3759 49.5337 88.1629C49.4538 87.758 49.7734 87.4171 50.2441 87.4003C50.4654 87.3866 50.6848 87.4487 50.8661 87.5764C51.0474 87.7042 51.1797 87.8899 51.2412 88.1029Z" fill="#7CBAF9"/>
<path d="M49.2375 90.5192C49.3174 90.924 48.9997 91.265 48.5288 91.2836C48.3074 91.2973 48.0881 91.2351 47.9068 91.1073C47.7256 90.9795 47.5933 90.7938 47.5318 90.5807C47.4519 90.1756 47.7692 89.8334 48.2403 89.8163C48.4617 89.8026 48.6811 89.8648 48.8624 89.9926C49.0436 90.1204 49.176 90.3061 49.2375 90.5192Z" fill="#7CBAF9"/>
<path d="M51.6964 90.4305C51.7763 90.8348 51.4567 91.1763 50.9869 91.1941C50.7658 91.208 50.5465 91.1459 50.3654 91.0183C50.1842 90.8906 50.0521 90.705 49.9908 90.4921C49.9109 90.0872 50.2289 89.7463 50.7001 89.7285C50.9212 89.7146 51.1405 89.7767 51.3217 89.9043C51.5028 90.032 51.635 90.2176 51.6964 90.4305Z" fill="#7CBAF9"/>
<path d="M169.418 88.587L69.3369 92.7601C67.5117 92.8362 65.7978 90.6786 65.5086 87.9412C65.219 85.2035 66.4655 82.9249 68.2926 82.8517L168.473 78.8358C170.299 78.7626 171.991 80.885 172.251 83.5767C172.511 86.2683 171.243 88.5117 169.418 88.587Z" fill="#72E8C1" fill-opacity="0.6"/>
<path d="M188.348 164.18L63.994 173.738C62.7715 173.832 61.5727 172.859 61.317 171.565L51.7397 123.129C51.4837 121.834 52.2921 120.734 53.5452 120.67L180.985 114.229C181.596 114.203 182.196 114.4 182.673 114.784C183.15 115.168 183.471 115.712 183.576 116.315L190.239 161.809C190.285 162.091 190.272 162.379 190.2 162.656C190.127 162.932 189.998 163.191 189.82 163.414C189.642 163.637 189.419 163.821 189.165 163.953C188.912 164.085 188.633 164.162 188.348 164.18Z" fill="#F2F9FF"/>
<path d="M174.198 142.445L78.666 150.44C76.9238 150.586 75.1987 148.591 74.8125 145.985C74.4264 143.379 75.5269 141.15 77.2709 141.007L172.905 133.158C174.649 133.015 176.351 134.977 176.707 137.54C177.064 140.103 175.94 142.299 174.198 142.445Z" fill="#E6F3FF"/>
<path d="M70.42 173.245L63.8667 173.748C62.6439 173.842 61.4454 172.869 61.1894 171.575L51.6108 123.136C51.3548 121.841 52.1629 120.741 53.416 120.677L60.1318 120.338L70.42 173.245Z" fill="#6DB2F8"/>
<path d="M59.8972 144.819C59.9131 144.917 59.907 145.018 59.8795 145.114C59.852 145.209 59.8037 145.298 59.738 145.373C59.6723 145.448 59.5909 145.508 59.4996 145.548C59.4082 145.587 59.3092 145.607 59.2095 145.604C58.9928 145.622 58.7765 145.564 58.5982 145.44C58.4198 145.315 58.2908 145.132 58.2334 144.922C58.2174 144.824 58.2233 144.723 58.2508 144.627C58.2782 144.531 58.3266 144.443 58.3923 144.368C58.458 144.293 58.5394 144.233 58.6309 144.193C58.7223 144.153 58.8214 144.134 58.9211 144.137C59.1377 144.119 59.3539 144.177 59.5321 144.302C59.7104 144.426 59.8395 144.609 59.8972 144.819Z" fill="#7CBAF9"/>
<path d="M62.2935 144.669C62.3092 144.768 62.3031 144.869 62.2754 144.964C62.2478 145.06 62.1994 145.149 62.1337 145.224C62.0679 145.299 61.9864 145.358 61.8951 145.398C61.8037 145.438 61.7046 145.457 61.605 145.454C61.3885 145.473 61.1723 145.415 60.9941 145.29C60.8159 145.166 60.687 144.983 60.6297 144.773C60.6139 144.675 60.62 144.574 60.6476 144.478C60.6752 144.383 60.7236 144.294 60.7894 144.219C60.8551 144.144 60.9366 144.085 61.028 144.045C61.1194 144.005 61.2185 143.986 61.3181 143.989C61.5346 143.97 61.7508 144.028 61.9289 144.153C62.1071 144.277 62.2361 144.46 62.2935 144.669Z" fill="#7CBAF9"/>
<path d="M60.3361 147.062C60.352 147.16 60.346 147.261 60.3186 147.357C60.2912 147.453 60.243 147.541 60.1774 147.616C60.1118 147.691 60.0304 147.751 59.9392 147.791C59.8479 147.831 59.7489 147.851 59.6492 147.848C59.4327 147.867 59.2165 147.809 59.0383 147.684C58.8601 147.56 58.7311 147.377 58.6739 147.168C58.6578 147.069 58.6637 146.968 58.6911 146.872C58.7185 146.777 58.7667 146.688 58.8323 146.613C58.898 146.538 58.9793 146.478 59.0707 146.438C59.162 146.398 59.2611 146.379 59.3607 146.381C59.5772 146.363 59.7934 146.421 59.9716 146.545C60.1498 146.669 60.2788 146.852 60.3361 147.062Z" fill="#7CBAF9"/>
<path d="M62.7314 146.91C62.7471 147.008 62.741 147.109 62.7135 147.205C62.6859 147.301 62.6376 147.389 62.5719 147.464C62.5063 147.539 62.4249 147.599 62.3336 147.639C62.2423 147.679 62.1433 147.698 62.0437 147.695C61.8274 147.714 61.6113 147.656 61.4333 147.532C61.2552 147.408 61.1263 147.225 61.0692 147.016C61.0533 146.917 61.0594 146.817 61.0869 146.721C61.1144 146.625 61.1627 146.536 61.2284 146.461C61.2941 146.386 61.3755 146.327 61.4668 146.287C61.5581 146.247 61.6572 146.227 61.7569 146.23C61.9732 146.211 62.1892 146.269 62.3673 146.393C62.5454 146.518 62.6742 146.7 62.7314 146.91Z" fill="#7CBAF9"/>
<path d="M60.7933 149.392C60.8092 149.491 60.8032 149.591 60.7759 149.687C60.7485 149.783 60.7003 149.872 60.6348 149.947C60.5694 150.022 60.4881 150.082 60.3969 150.122C60.3057 150.162 60.2068 150.182 60.1072 150.179C59.8908 150.198 59.6747 150.14 59.4966 150.016C59.3186 149.891 59.1898 149.708 59.1329 149.499C59.1168 149.4 59.1226 149.3 59.1499 149.204C59.1772 149.108 59.2253 149.019 59.2908 148.944C59.3563 148.869 59.4376 148.809 59.5288 148.769C59.6201 148.729 59.7191 148.709 59.8187 148.711C60.0352 148.693 60.2513 148.751 60.4294 148.875C60.6075 149 60.7363 149.183 60.7933 149.392Z" fill="#7CBAF9"/>
<path d="M63.1866 149.236C63.2024 149.335 63.1963 149.435 63.1689 149.531C63.1414 149.627 63.0931 149.715 63.0276 149.79C62.962 149.865 62.8807 149.925 62.7895 149.965C62.6983 150.005 62.5994 150.025 62.4997 150.023C62.2836 150.041 62.0678 149.984 61.8898 149.86C61.7119 149.736 61.5832 149.553 61.5262 149.344C61.5104 149.245 61.5164 149.145 61.5438 149.049C61.5713 148.953 61.6195 148.864 61.6851 148.789C61.7506 148.714 61.832 148.654 61.9232 148.614C62.0145 148.574 62.1135 148.555 62.2131 148.557C62.4292 148.538 62.6451 148.596 62.823 148.72C63.0009 148.844 63.1296 149.027 63.1866 149.236Z" fill="#7CBAF9"/>
<path d="M208.414 5.96866L15.3344 3.48877C10.9454 3.43843 8.10783 7.28651 8.99554 12.0838L12.3456 33.1681L218.685 29.8655L217.116 13.7852C216.699 9.51923 212.803 6.01873 208.414 5.96866Z" fill="#2E5078"/>
<path d="M30.3193 21.4474V21.4456C29.2563 20.47 28.5378 19.1764 28.2712 17.7584C28.1372 17.1294 28.134 16.4796 28.262 15.8494C28.39 15.2191 28.6463 14.622 29.0151 14.0951L29.0121 14.0925C29.6023 13.3022 29.373 12.0092 28.4994 11.2043C27.6258 10.3994 26.4377 10.3837 25.8475 11.1739C24.6053 12.8385 24.0683 15.1546 24.528 17.724C25.0049 20.2604 26.2905 22.5742 28.1923 24.3189C29.0638 25.1224 30.2456 25.1301 30.8328 24.3367C31.4201 23.5433 31.1916 22.2521 30.3199 21.4485L30.3193 21.4474Z" fill="#FFD544"/>
<path d="M29.0133 14.0928L29.0154 14.0947C29.3748 13.6161 29.8441 13.2312 30.3837 12.9723C30.9232 12.7135 31.5172 12.5884 32.1154 12.6077C33.4788 12.6626 34.7743 13.2174 35.7549 14.1663L35.7568 14.1639C36.6282 14.9675 37.8137 14.9795 38.4047 14.1906C38.9957 13.4017 38.772 12.1131 37.9003 11.3109C36.0644 9.61672 33.7496 8.55403 31.3941 8.52473C30.3249 8.48658 29.2622 8.70744 28.2967 9.1685C27.3312 9.62955 26.4914 10.3171 25.8489 11.1727C25.2593 11.9632 25.4904 13.2584 26.3646 14.0651C27.2387 14.8719 28.4231 14.8833 29.0128 14.0918L29.0133 14.0928Z" fill="#00B1E8"/>
<path d="M37.0464 21.499L37.0443 21.4971C36.6863 21.9758 36.2186 22.3615 35.6805 22.6218C35.1425 22.8821 34.5498 23.0095 33.9523 22.9932C32.592 22.9429 31.2983 22.3909 30.3208 21.4436L30.3189 21.446C29.4472 20.6422 28.2638 20.6326 27.6771 21.4255C27.0903 22.2184 27.321 23.5138 28.1927 24.3179C30.0273 26.0103 32.3324 27.0612 34.6738 27.0756C35.741 27.1038 36.7994 26.8753 37.7598 26.4093C38.7203 25.9433 39.5548 25.2535 40.1932 24.3978C40.7831 23.6076 40.5578 22.319 39.6887 21.5182C38.8197 20.7173 37.6379 20.7074 37.0469 21.4977L37.0464 21.499Z" fill="#FB5064"/>
<path d="M29.0128 14.0917C28.4231 14.8825 27.2376 14.8702 26.3635 14.0651C25.4894 13.2599 25.2582 11.9634 25.8482 11.1742C26.4381 10.385 27.6257 10.3978 28.5001 11.2046C29.3745 12.0113 29.6041 13.3025 29.0128 14.0917Z" fill="#0089C7"/>
<path d="M30.8322 24.3356C30.2463 25.129 29.0632 25.1213 28.1917 24.3178C27.3203 23.5142 27.0891 22.2201 27.6764 21.4266C28.2636 20.6332 29.4475 20.6433 30.3192 21.4474C31.191 22.2515 31.4203 23.544 30.8322 24.3356Z" fill="#E2375C"/>
<path d="M117.06 50.4103C118.208 50.3682 119.331 50.0662 120.346 49.5269C120.847 49.2605 121.35 48.8935 121.515 48.3494C121.741 47.6036 121.252 46.8406 120.741 46.2522C119.792 45.1599 118.68 44.2204 117.445 43.4668C116.523 42.9046 115.523 42.4393 114.746 41.6885C113.946 40.9091 113.439 39.8779 113.31 38.7683C113.194 37.7477 113.535 36.5428 114.485 36.1526C115.144 35.882 115.914 36.0876 116.515 36.4701C117.116 36.8526 117.595 37.394 118.122 37.8729C121.968 41.3636 128.158 41.3699 131.8 45.0721C134.347 47.6609 135.072 51.4687 136.51 54.8033L135.911 54.7074" fill="#B78858"/>
<path d="M144.873 62.1934C145.208 62.391 144.873 72.0607 134.281 72.423C133.909 72.4355 130.003 64.134 129.212 63.5512C127.709 62.4443 114.573 61.893 113.333 61.7872C112.021 61.6754 110.696 61.5611 109.442 61.1592C107.621 60.5757 103.032 56.5148 102.387 55.7096C101.475 54.5697 100.878 53.2138 100.338 51.8576C98.5988 47.4936 97.6477 42.6907 96.4058 38.1477C96.3386 37.9617 96.3175 37.7622 96.3443 37.5663C96.4346 37.1607 96.9009 36.9596 97.3154 36.9287C98.434 36.8448 99.4953 37.5447 100.15 38.4556C100.805 39.3665 101.129 40.4676 101.442 41.5452C102.583 40.8098 104.144 41.6594 104.882 42.7983C105.62 43.9372 105.897 45.3285 106.654 46.4557C107.109 47.0791 107.633 47.6482 108.218 48.152C109.128 48.9979 111.707 51.3912 112.192 51.5398C112.73 51.7047 113.311 51.5912 113.86 51.4738C117.569 50.6811 121.453 47.9759 125.229 47.6188C131.928 46.9851 135.29 48.14 136.092 52.3263C136.391 53.661 136.815 54.9643 137.36 56.2189C137.993 57.6656 139.351 58.9334 144.873 62.1934Z" fill="#CCA369"/>
<path d="M102.878 59.3135C105.314 60.2308 107.427 61.3257 110.081 61.5992C113.134 61.9138 118.308 61.7814 120.009 58.6591C120.561 57.647 120.483 56.2295 119.591 55.499C119.554 55.463 119.507 55.4382 119.456 55.4273C119.311 55.409 119.232 55.5871 119.178 55.7222C118.929 56.3478 118.275 56.7036 117.648 56.9497C113.214 58.6924 108.794 56.8323 104.667 55.1325C100.084 53.2449 96.0397 49.917 91.1579 49.0629C90.295 48.9119 89.3735 48.8485 88.5729 49.2043C88.3869 49.2718 88.2185 49.3803 88.0802 49.5217C87.9419 49.6631 87.8372 49.8338 87.7738 50.0212C87.61 50.6939 88.2578 51.2658 88.8355 51.6458C92.2601 53.9068 95.8935 55.8274 99.5303 57.7317C100.613 58.3266 101.731 58.8549 102.878 59.3135Z" fill="#CCA369"/>
<path d="M101.034 53.8981C102.658 55.7492 103.935 57.6048 106.027 59.015C108.436 60.6397 112.813 62.8325 115.625 60.986C116.536 60.387 117.102 59.169 116.684 58.1628C116.669 58.1162 116.641 58.0748 116.604 58.0429C116.491 57.963 116.346 58.0754 116.24 58.1649C115.754 58.5764 115.049 58.5817 114.417 58.5082C109.939 57.987 107.078 54.4649 104.391 51.2073C101.408 47.5901 99.5136 43.0107 95.8194 40.1225C95.1664 39.6119 94.4254 39.1485 93.5987 39.0888C93.4134 39.0622 93.2245 39.0777 93.046 39.1341C92.8675 39.1905 92.704 39.2863 92.5677 39.4146C92.1314 39.9033 92.4172 40.669 92.7294 41.2446C94.5807 44.6575 96.758 47.8812 98.9449 51.0893C99.5836 52.0671 100.281 53.0051 101.034 53.8981Z" fill="#CCA369"/>
<path d="M262.446 199.377C262.242 199.482 262.036 199.584 261.83 199.687C262.036 199.584 262.241 199.482 262.446 199.377Z" fill="#60A1F0"/>
<path d="M263.771 198.677C263.602 198.769 263.43 198.858 263.26 198.949C263.43 198.858 263.602 198.769 263.771 198.677Z" fill="#60A1F0"/>
<path d="M261.075 200.058C260.876 200.154 260.676 200.249 260.475 200.343C260.676 200.249 260.876 200.154 261.075 200.058Z" fill="#60A1F0"/>
<path d="M272.165 186.873C272.166 187.116 272.163 187.357 272.156 187.598C272.163 187.357 272.166 187.116 272.165 186.873Z" fill="#579CEF"/>
<g style="mix-blend-mode:multiply" opacity="0.2">
<path d="M272.088 184.853C272.13 185.527 272.161 186.203 272.165 186.873C272.161 186.203 272.13 185.527 272.088 184.853Z" fill="#4E97EE"/>
</g>
<g style="mix-blend-mode:multiply" opacity="0.2">
<path d="M272.088 184.856C272.085 184.802 272.081 184.748 272.077 184.691C272.08 184.746 272.085 184.802 272.088 184.856Z" fill="#4E97EE"/>
</g>
<g style="mix-blend-mode:multiply" opacity="0.2">
<path d="M272.156 187.599C272.145 187.987 272.121 188.372 272.085 188.755C272.122 188.372 272.146 187.987 272.156 187.599Z" fill="#4E97EE"/>
</g>
<path d="M259.148 200.945C247.48 206.077 233.58 207.967 221.35 205.169C221.35 205.132 221.35 205.094 221.35 205.057C220.768 204.945 220.187 204.824 219.608 204.696L215.779 209.97C217.024 210.404 218.284 210.796 219.559 211.146C229.147 213.789 239.458 214.086 249.374 212.321C253.232 208.553 256.883 204.58 260.313 200.42C260.06 200.538 259.804 200.652 259.549 200.766C259.416 200.825 259.282 200.886 259.148 200.945Z" fill="#4E97EE"/>
<path d="M172.148 115.298C171.509 114.786 170.875 114.267 170.24 113.75C170.919 114.307 171.558 114.826 172.148 115.298Z" fill="#4E97EE"/>
<path d="M151.11 97.0995C150.477 96.5157 149.846 95.9311 149.215 95.3457C149.843 95.9311 150.475 96.5157 151.11 97.0995Z" fill="#4E97EE"/>
<path d="M148.95 95.0989C148.664 94.8326 148.378 94.5649 148.093 94.2959C148.377 94.5637 148.663 94.8313 148.95 95.0989Z" fill="#4E97EE"/>
<path d="M138.608 84.9378C138.274 84.5854 137.94 84.2328 137.609 83.877C137.934 84.2259 138.268 84.5801 138.608 84.9378Z" fill="#4E97EE"/>
<path d="M130.494 71.9355C130.953 69.4005 133.108 66.8444 135.617 67.0532C149.511 68.2107 154.136 79.6665 156.701 83.5972C160.722 89.7608 164.074 96.4374 168.899 101.964C173.723 107.492 180.465 111.875 187.723 111.579C196.234 111.233 203.166 104.798 209.616 99.0776C210.141 98.6124 210.674 98.1556 211.202 97.6948C215.002 89.2785 218.748 84.8218 221.732 82.3931C209.234 85.5337 188.512 90.4898 187.774 90.2868C186 89.7976 183.722 88.7562 182.642 90.285C171.367 82.6224 160.663 74.1522 150.614 64.9411C147.208 61.8191 142.972 58.3681 138.556 59.6524C135.075 60.6645 133.016 64.2678 131.533 67.6464C130.762 69.4026 130.036 71.2558 130.111 73.175C130.16 73.7075 130.307 74.2263 130.546 74.7049C130.341 73.7948 130.324 72.8527 130.494 71.9355Z" fill="#4E97EE"/>
<g style="mix-blend-mode:multiply" opacity="0.2">
<path d="M137.582 83.8477L137.609 83.8765C134.122 80.127 131.53 76.8875 130.545 74.7051C131.372 78.4072 135.096 81.1686 137.582 83.8477Z" fill="#4E97EE"/>
</g>
<g style="mix-blend-mode:multiply" opacity="0.2">
<path d="M149.124 95.2643C149.154 95.2909 149.184 95.3188 149.213 95.3462L148.947 95.0996L149.124 95.2643Z" fill="#4E97EE"/>
</g>
<g style="mix-blend-mode:multiply" opacity="0.2">
<path d="M170.239 113.75C165.277 109.684 158.06 103.492 151.109 97.1006C157.323 102.835 163.69 108.419 170.239 113.75Z" fill="#4E97EE"/>
</g>
<g style="mix-blend-mode:multiply" opacity="0.2">
<path d="M138.607 84.9375C141.663 88.1647 144.856 91.2588 148.093 94.2959C144.663 91.0724 141.395 87.872 138.607 84.9375Z" fill="#4E97EE"/>
</g>
<path d="M211.202 97.6966C210.673 98.1573 210.14 98.6141 209.616 99.0794C203.165 104.799 196.234 111.235 187.723 111.581C180.465 111.877 173.722 107.493 168.898 101.966C164.075 96.4394 160.722 89.7626 156.7 83.5989C154.135 79.6683 149.509 68.2125 135.617 67.055C133.107 66.8461 130.953 69.4022 130.493 71.9372C130.323 72.8545 130.34 73.7968 130.544 74.7072C131.529 76.8896 134.121 80.1291 137.608 83.8786C137.938 84.2344 138.274 84.587 138.606 84.9394C141.394 87.8742 144.661 91.0746 148.091 94.2978C148.377 94.5657 148.663 94.8334 148.949 95.1008L149.215 95.348C149.844 95.9339 150.476 96.5186 151.11 97.1018C158.061 103.494 165.277 109.685 170.24 113.751C170.875 114.268 171.509 114.787 172.148 115.299C174.05 116.825 176.065 118.296 178.388 118.989C180.692 119.676 183.148 119.552 185.549 119.423C191.982 119.076 198.371 119.199 204.709 119.21C205.267 115.485 206.005 111.816 207.106 108.423C208.275 104.775 209.642 101.195 211.202 97.6966Z" fill="#4E97EE"/>
<g style="mix-blend-mode:multiply" opacity="0.2">
<path d="M211.202 97.6966C210.673 98.1573 210.14 98.6141 209.616 99.0794C203.165 104.799 196.234 111.235 187.723 111.581C180.465 111.877 173.722 107.493 168.898 101.966C164.075 96.4394 160.722 89.7626 156.7 83.5989C154.135 79.6683 149.509 68.2125 135.617 67.055C133.107 66.8461 130.953 69.4022 130.493 71.9372C130.323 72.8545 130.34 73.7968 130.544 74.7072C131.529 76.8896 134.121 80.1291 137.608 83.8786C137.938 84.2344 138.274 84.587 138.606 84.9394C141.394 87.8742 144.661 91.0746 148.091 94.2978C148.377 94.5657 148.663 94.8334 148.949 95.1008L149.215 95.348C149.844 95.9339 150.476 96.5186 151.11 97.1018C158.061 103.494 165.277 109.685 170.24 113.751C170.875 114.268 171.509 114.787 172.148 115.299C174.05 116.825 176.065 118.296 178.388 118.989C180.692 119.676 183.148 119.552 185.549 119.423C191.982 119.076 198.371 119.199 204.709 119.21C205.267 115.485 206.005 111.816 207.106 108.423C208.275 104.775 209.642 101.195 211.202 97.6966Z" fill="#4E97EE"/>
</g>
<path d="M265.582 80.0922C265.711 79.364 265.48 78.5376 264.873 78.1157C265.04 78.1265 265.206 78.156 265.367 78.2036C264.953 77.8672 264.379 77.7985 263.842 77.7572C263.721 77.7481 263.602 77.7407 263.48 77.7324C263.858 79.009 264.368 80.2425 265.003 81.413C265.289 81.0196 265.486 80.569 265.582 80.0922Z" fill="#4E97EE"/>
<path d="M232.464 81.7762C232.827 82.5277 233.319 83.2098 233.917 83.7919C234.864 81.4927 235.665 79.1359 236.314 76.7354C235.605 76.5582 234.877 76.4674 234.145 76.4648C233.676 76.4789 233.214 76.5863 232.787 76.7807C231.741 78.1628 231.716 80.1888 232.464 81.7762Z" fill="#4E97EE"/>
<path d="M229.228 29.1157L229.681 28.889C231.874 30.2836 234.256 31.3548 236.755 32.0696C236.935 32.1209 237.117 32.1674 237.3 32.2089C239.022 32.5996 240.887 32.6055 242.65 33.106C244.892 33.7422 246.986 34.6829 248.746 36.1523C250.348 37.4904 252.861 40.3272 252.77 42.3242C252.598 46.1044 251.139 52.667 255.696 51.3859C256.367 51.1976 256.924 49.8326 257.359 48.7297L257.263 48.3731C257.29 48.4498 257.387 48.4687 257.471 48.4445C257.501 48.3683 257.53 48.2948 257.559 48.2231C257.382 48.2294 257.207 48.269 257.044 48.3401C256.572 48.5454 256.28 48.9862 255.891 49.3087C255.503 49.6313 254.856 49.8185 254.485 49.4736C254.628 46.8635 254.769 44.2307 254.304 41.6512C253.838 39.0717 252.708 36.5143 250.657 34.721C247.21 31.7066 242.057 31.4387 237.538 30.169C234.673 29.3664 231.958 28.1001 229.502 26.4203C227.226 24.8577 225.15 22.8418 224.359 20.3153C223.568 17.7888 224.395 14.7032 226.82 13.3806C229.444 11.9493 232.816 12.956 235.512 14.2989C237.431 15.2532 239.264 16.3703 240.991 17.638C244.487 20.2061 247.58 23.4144 251.694 24.9863C256.957 26.9972 262.876 25.9779 268.543 25.7379C271.105 25.6293 273.726 25.6956 276.157 26.4722C278.589 27.2489 280.832 28.8261 281.825 31.0378C282.56 32.6734 282.541 34.5189 282.049 36.2048C281.586 37.7869 280.515 39.1346 279.567 40.4982C278.699 41.6881 277.769 42.8318 276.781 43.9244C275.268 45.6753 273.791 47.4667 272.638 49.4435C271.811 50.8245 271.198 52.3234 270.821 53.8887C270.467 55.4489 270.644 56.9111 271.158 58.4397C271.548 59.6009 272.148 60.7403 272.13 61.9553C272.113 63.1704 271.168 64.4944 269.867 64.4286C270.635 64.4675 269.227 68.7057 268.953 69.1961C268.501 69.9676 267.897 70.6391 267.178 71.1697C266.458 71.7003 265.638 72.0789 264.768 72.2824C265.044 67.0134 264.021 61.7766 262.362 56.6994C262.024 56.8435 261.672 56.955 261.313 57.0326C261.406 58.2577 261.483 59.4829 261.557 60.7081C261.603 61.4647 261.648 62.2211 261.697 62.9762C261.827 64.9818 261.954 66.9878 262.114 68.9918C262.208 69.6618 262.339 70.3259 262.508 70.9811C262.566 72.4875 262.717 73.9888 262.961 75.4766C264.574 75.5545 266.175 75.1504 267.558 74.3156C270.251 72.6025 271.234 69.2842 271.169 66.2362C273.026 65.9978 275.21 65.3008 275.592 63.5899C276.143 61.1268 272.782 58.9939 272.54 56.449C272.255 53.4394 273.854 50.4242 275.814 48.1438C276.93 46.8459 278.294 45.5235 279.666 44.1487L279.668 44.1465L279.676 44.138C283.625 40.1829 287.638 35.7973 286.038 30.3254L286.022 30.27C285.973 30.1043 285.92 29.9378 285.86 29.7703V29.7682C285.697 29.3165 285.498 28.8787 285.264 28.4591C284.71 27.4665 283.992 26.5746 283.141 25.8208C281.529 24.3819 279.527 23.4517 277.387 23.147C277.505 23.0002 277.614 22.8459 277.712 22.6851C277.836 22.4879 277.944 22.2812 278.036 22.067C278.089 21.9393 278.137 21.8096 278.179 21.6778C278.345 21.1466 278.424 20.5919 278.412 20.0353C278.402 19.5586 278.336 19.0847 278.214 18.6237C278.15 18.3757 278.071 18.1317 277.977 17.8932C277.829 17.5138 277.645 17.1494 277.428 16.8049C276.54 15.4023 275.203 14.313 273.709 13.4448C273.332 13.2256 272.945 13.0205 272.553 12.8282C272.353 12.7302 272.153 12.6345 271.95 12.5429C271.679 12.4202 271.406 12.3016 271.13 12.1871C269.479 11.4989 267.77 10.9353 266.123 10.2407C265.849 10.1249 265.576 10.0051 265.305 9.88112C262.509 8.59657 260.021 6.82462 257.475 5.13629C256.72 4.6353 255.959 4.14124 255.185 3.66982C253.101 2.39162 250.856 1.39653 248.51 0.710784C248.26 0.63976 248.009 0.573798 247.757 0.512895C247.435 0.434591 247.112 0.362946 246.788 0.301155C246.429 0.232617 246.07 0.175176 245.711 0.128832C244.998 0.0355109 244.279 -0.0072092 243.561 0.000990466C243.371 0.00365386 243.181 0.0105754 242.991 0.0217617C241.589 0.0871416 240.213 0.422281 238.938 1.00882C238.655 1.14174 238.381 1.29087 238.115 1.45547C237.927 1.57213 237.747 1.69784 237.57 1.82835C237.25 2.06195 236.947 2.3166 236.662 2.59061L236.658 2.59434C235.572 3.6672 234.722 4.95606 234.164 6.37769V6.37956C234.065 6.62566 233.978 6.87468 233.892 7.12531C233.863 7.21134 233.836 7.29763 233.809 7.38393C233.803 7.40151 233.797 7.41908 233.792 7.43719C231.501 6.95778 227.689 7.55199 227.176 7.7331C221.117 9.87074 219.833 13.2775 218.547 16.9751C217.26 20.6727 218.484 25.543 221.17 28.3907C221.488 28.777 221.909 29.0636 222.385 29.2163C222.868 29.3327 223.459 29.1386 223.64 28.6757C223.735 28.3079 223.691 27.9176 223.516 27.5805C222.635 25.3312 221.161 23.2924 220.717 20.918C219.951 16.8219 222.665 12.5661 226.457 10.8378C226.155 11.0031 225.859 11.1791 225.569 11.3657C224.082 12.3261 222.773 13.5955 222.1 15.1626C221.306 17.014 221.47 19.1492 222.243 21.0176C222.704 22.0941 223.318 23.0987 224.065 24.0006C224.058 24.3719 224.07 24.7433 224.102 25.1134C224.422 28.6914 226.555 32.1027 229.742 34.1338C229.897 34.2331 230.056 34.3285 230.215 34.4217C230.201 34.3111 230.188 34.2145 230.177 34.1407C229.899 32.2851 229.505 30.9704 229.228 29.1157Z" fill="#0058B0"/>
<path d="M262.113 68.9917C261.954 66.9878 261.826 64.9817 261.696 62.9762C261.647 62.2211 261.602 61.4647 261.556 60.708C261.196 61.2545 260.829 61.7832 260.455 62.289C260.389 62.3778 260.32 62.4666 260.246 62.5553C258.908 64.2149 256.875 65.4401 254.965 66.4972L254.9 66.5334L254.825 66.5747C252.484 67.8654 250.587 69.0974 247.485 69.9151C247.347 69.9684 247.209 70.0216 247.071 70.0723C247.048 70.1391 247.028 70.207 247.004 70.2739C244.953 76.1323 241.87 81.5767 237.901 86.3499C238.365 86.5493 238.837 86.7274 239.317 86.8842C241.802 86.9273 244.61 87.9072 246.862 87.7056C250.543 87.3758 253.983 86.9598 257.554 85.8249C260.111 85.0129 262.733 84.004 264.526 82.0088C264.696 81.8198 264.855 81.6202 265.001 81.4111C264.366 80.2407 263.856 79.0071 263.478 77.7306C263.308 77.153 263.164 76.563 263.047 75.9605C263.017 75.8007 262.988 75.639 262.96 75.475C262.717 73.9872 262.565 72.4858 262.507 70.9794C262.339 70.3248 262.207 69.6612 262.113 68.9917Z" fill="#B78858"/>
<path d="M233.918 83.7919C234.672 84.5222 235.524 85.1452 236.448 85.6435C236.92 85.9034 237.405 86.1395 237.901 86.3509C241.869 81.5777 244.952 76.1333 247.004 70.2749C247.027 70.208 247.048 70.1401 247.071 70.0732C243.364 71.4673 239.709 72.5068 237.201 72.9058C236.953 74.1842 236.657 75.4626 236.314 76.7355C235.665 79.1359 234.865 81.4927 233.918 83.7919Z" fill="#C69760"/>
<path d="M247.485 69.917C247.35 69.9524 247.217 69.9883 247.077 70.0222C248.39 67.1255 248.821 63.0566 249.069 60.6076C249.386 57.4842 249.34 48.1162 243.649 42.9697C241.498 41.0255 234.872 38.5509 232.078 37.5263C231.35 37.26 230.611 36.9699 230.564 36.967C230.538 36.8985 230.523 36.8268 230.518 36.7539C230.645 38.2188 230.63 39.6128 230.259 40.5716C228.189 45.9112 225.732 48.8042 227.496 59.5457C228.049 62.7301 229.108 65.8054 230.634 68.6545C231.483 70.2723 232.534 71.8892 234.182 72.8821C234.633 73.1543 235.717 73.1418 237.201 72.9056C239.709 72.5061 243.364 71.4673 247.071 70.073C247.209 70.0235 247.347 69.9702 247.485 69.917Z" fill="#CCA369"/>
<path d="M254.902 66.5363L254.971 66.498L254.902 66.5363Z" fill="#CCA369"/>
<path d="M261.556 60.708C261.197 61.2545 260.829 61.7832 260.455 62.289C260.388 62.3798 260.317 62.4683 260.246 62.5554C260.32 62.4666 260.389 62.3778 260.455 62.289C260.829 61.7832 261.197 61.2545 261.556 60.708Z" fill="#CCA369"/>
<path d="M232.077 37.5262C234.87 38.5508 241.496 41.0245 243.648 42.9696C249.339 48.1148 249.384 57.4851 249.067 60.6074C248.819 63.0564 248.389 67.1253 247.076 70.022C247.215 69.9882 247.349 69.9522 247.483 69.9168C250.586 69.0991 252.483 67.866 254.824 66.5764L254.898 66.5351L254.963 66.4989C256.874 65.4415 258.905 64.2163 260.244 62.557C260.315 62.4686 260.386 62.3802 260.453 62.2907C260.826 61.7847 261.195 61.2562 261.554 60.7097C261.481 59.4845 261.404 58.2594 261.31 57.0342C261.67 56.9566 262.021 56.8451 262.359 56.701C262.887 56.4811 263.372 56.172 263.794 55.7872C264.404 55.1922 264.889 54.4801 265.217 53.6935C265.945 52.0734 266.246 50.2228 265.676 48.5412C265.106 46.8595 263.545 45.409 261.668 45.2077C259.835 45.0111 257.882 46.2573 257.669 47.951C257.664 47.9917 257.655 48.0309 257.652 48.0727C257.649 48.1244 257.644 48.176 257.635 48.2272C257.608 48.2272 257.582 48.2248 257.555 48.2256C257.526 48.2972 257.497 48.3707 257.467 48.4469C257.383 48.4711 257.285 48.4522 257.259 48.3755L257.355 48.7321C256.92 49.8351 256.363 51.2 255.692 51.3883C251.135 52.6694 252.594 46.1068 252.766 42.3267C252.857 40.3291 250.345 37.4929 248.742 36.1548C246.982 34.6854 244.888 33.7447 242.646 33.1084C240.883 32.6079 239.018 32.6023 237.297 32.2113C237.113 32.1694 236.931 32.123 236.751 32.0721C234.253 31.357 231.87 30.2855 229.677 28.8906L229.225 29.1173C229.501 30.9721 229.896 32.2867 230.172 34.1415C230.183 34.2153 230.196 34.312 230.211 34.4225C230.298 35.0785 230.439 36.272 230.515 36.7564C230.52 36.8293 230.536 36.901 230.561 36.9695C230.609 36.9703 231.349 37.2588 232.077 37.5262Z" fill="#C69760"/>
<path d="M257.637 48.2248C257.645 48.1737 257.651 48.1223 257.654 48.0707C257.657 48.0295 257.666 47.9909 257.671 47.9492C257.635 48.0348 257.597 48.1267 257.559 48.2232C257.585 48.2224 257.611 48.2242 257.637 48.2248Z" fill="#C69760"/>
<g style="mix-blend-mode:multiply" opacity="0.3">
<path d="M257.637 48.2248C257.645 48.1737 257.651 48.1223 257.654 48.0707C257.657 48.0295 257.666 47.9909 257.671 47.9492C257.635 48.0348 257.597 48.1267 257.559 48.2232C257.585 48.2224 257.611 48.2242 257.637 48.2248Z" fill="#0058B0"/>
</g>
<path d="M264.768 72.2833C265.639 72.0798 266.458 71.7012 267.178 71.1706C267.897 70.64 268.501 69.9685 268.953 69.1969C269.228 68.7061 270.635 64.4678 269.867 64.4295C271.168 64.4952 272.113 63.1707 272.13 61.9562C272.148 60.7417 271.548 59.6021 271.158 58.4405C270.644 56.912 270.467 55.4498 270.821 53.8896C271.198 52.3242 271.811 50.8253 272.638 49.4444C273.791 47.4684 275.268 45.6762 276.781 43.9253C277.769 42.8326 278.699 41.689 279.567 40.4991C280.515 39.1362 281.586 37.7878 282.049 36.2057C282.541 34.5203 282.56 32.6748 281.825 31.0387C280.832 28.8281 278.589 27.2498 276.158 26.4731C273.726 25.6965 271.105 25.6301 268.543 25.7388C262.876 25.9785 256.957 26.9981 251.694 24.9872C247.58 23.4158 244.487 20.2069 240.991 17.6389C239.264 16.3713 237.431 15.2543 235.512 14.3001C232.816 12.9572 229.444 11.9504 226.82 13.3817C224.395 14.7044 223.568 17.7902 224.359 20.3164C225.15 22.8426 227.226 24.8588 229.502 26.4214C231.958 28.1012 234.673 29.3675 237.538 30.1702C242.057 31.4398 247.21 31.7078 250.657 34.7222C252.708 36.5155 253.838 39.0726 254.304 41.6523C254.769 44.2321 254.628 46.8657 254.485 49.4747C254.856 49.821 255.503 49.6327 255.891 49.3099C256.28 48.9871 256.572 48.5466 257.044 48.3412C257.207 48.2702 257.382 48.2305 257.559 48.2243C257.598 48.1276 257.635 48.0354 257.672 47.9497C257.885 46.2566 259.837 45.0104 261.671 45.2064C263.547 45.4077 265.108 46.8577 265.678 48.5399C266.248 50.2221 265.948 52.0721 265.22 53.6922C264.891 54.4788 264.407 55.1909 263.796 55.7859C263.374 56.1707 262.889 56.4798 262.362 56.6997C264.021 61.7775 265.044 67.0138 264.768 72.2833Z" fill="#0058B0"/>
<g style="mix-blend-mode:multiply" opacity="0.3">
<path d="M264.768 72.2833C265.639 72.0798 266.458 71.7012 267.178 71.1706C267.897 70.64 268.501 69.9685 268.953 69.1969C269.228 68.7061 270.635 64.4678 269.867 64.4295C271.168 64.4952 272.113 63.1707 272.13 61.9562C272.148 60.7417 271.548 59.6021 271.158 58.4405C270.644 56.912 270.467 55.4498 270.821 53.8896C271.198 52.3242 271.811 50.8253 272.638 49.4444C273.791 47.4684 275.268 45.6762 276.781 43.9253C277.769 42.8326 278.699 41.689 279.567 40.4991C280.515 39.1362 281.586 37.7878 282.049 36.2057C282.541 34.5203 282.56 32.6748 281.825 31.0387C280.832 28.8281 278.589 27.2498 276.158 26.4731C273.726 25.6965 271.105 25.6301 268.543 25.7388C262.876 25.9785 256.957 26.9981 251.694 24.9872C247.58 23.4158 244.487 20.2069 240.991 17.6389C239.264 16.3713 237.431 15.2543 235.512 14.3001C232.816 12.9572 229.444 11.9504 226.82 13.3817C224.395 14.7044 223.568 17.7902 224.359 20.3164C225.15 22.8426 227.226 24.8588 229.502 26.4214C231.958 28.1012 234.673 29.3675 237.538 30.1702C242.057 31.4398 247.21 31.7078 250.657 34.7222C252.708 36.5155 253.838 39.0726 254.304 41.6523C254.769 44.2321 254.628 46.8657 254.485 49.4747C254.856 49.821 255.503 49.6327 255.891 49.3099C256.28 48.9871 256.572 48.5466 257.044 48.3412C257.207 48.2702 257.382 48.2305 257.559 48.2243C257.598 48.1276 257.635 48.0354 257.672 47.9497C257.885 46.2566 259.837 45.0104 261.671 45.2064C263.547 45.4077 265.108 46.8577 265.678 48.5399C266.248 50.2221 265.948 52.0721 265.22 53.6922C264.891 54.4788 264.407 55.1909 263.796 55.7859C263.374 56.1707 262.889 56.4798 262.362 56.6997C264.021 61.7775 265.044 67.0138 264.768 72.2833Z" fill="#0058B0"/>
</g>
<path d="M212.058 149.618C213.102 150.109 214.154 150.581 215.211 151.044C213.874 140.883 213.829 130.549 216.012 120.565C218.8 107.819 225.469 95.6466 235.904 87.8162C236.883 87.0817 238.059 86.8641 239.318 86.8862C238.838 86.7292 238.366 86.5511 237.902 86.3519C237.406 86.1405 236.921 85.9044 236.449 85.6445C235.525 85.1462 234.673 84.5232 233.919 83.7929C233.321 83.2108 232.829 82.5287 232.466 81.7773C231.718 80.1899 231.742 78.1638 232.789 76.7818C232.865 76.6809 232.946 76.5839 233.032 76.4912C232.789 76.4364 232.537 76.4328 232.292 76.4808C232.048 76.5288 231.816 76.6272 231.611 76.7699C231.407 76.9125 231.234 77.0962 231.105 77.3093C230.975 77.5223 230.892 77.76 230.859 78.0072C229.865 77.4591 228.793 78.4887 227.869 79.1482C227.378 79.499 225.017 79.7214 221.733 82.3941C218.749 84.8228 215.003 89.2787 211.203 97.6958C209.644 101.194 208.277 104.776 207.109 108.424C206.006 111.816 205.268 115.485 204.712 119.211C203.994 123.999 203.575 128.879 203.06 133.386C202.619 137.264 202.263 141.15 201.952 145.039C202.73 145.529 203.514 146.01 204.303 146.483C207.003 147.15 209.53 148.43 212.058 149.618Z" fill="#60A1F0"/>
<path d="M219.612 204.696C220.191 204.825 220.772 204.946 221.354 205.058C221.361 204.123 221.369 203.192 221.378 202.265L219.612 204.696Z" fill="#60A1F0"/>
<path d="M259.148 200.945C259.283 200.886 259.417 200.825 259.551 200.765C259.417 200.825 259.283 200.885 259.148 200.945Z" fill="#60A1F0"/>
<path d="M271.899 182.171C271.837 181.207 271.806 180.242 271.8 179.277C271.776 179.339 271.751 179.401 271.727 179.462C271.752 180.367 271.841 181.274 271.899 182.171Z" fill="#579CEF"/>
<path d="M239.534 195.305C235.058 193.476 230.759 191.243 226.688 188.634C227.127 191.626 227.291 194.118 227.291 194.118L221.375 202.264C221.366 203.192 221.358 204.123 221.352 205.057C221.352 205.094 221.352 205.131 221.352 205.169C233.582 207.967 247.482 206.077 259.149 200.945C259.284 200.886 259.417 200.825 259.551 200.765C259.807 200.65 260.062 200.536 260.316 200.419C260.742 199.902 261.165 199.382 261.585 198.858C254.115 199.782 246.5 198.159 239.534 195.305Z" fill="#579CEF"/>
<path d="M265.581 80.0915C265.486 80.5683 265.288 81.0189 265.002 81.4123C264.856 81.6213 264.698 81.8209 264.527 82.0099C262.734 84.0051 260.111 85.014 257.555 85.826C253.984 86.9606 250.544 87.3769 246.864 87.7067C244.611 87.9083 241.803 86.9284 239.319 86.8853C238.06 86.8632 236.884 87.0808 235.905 87.8153C225.47 95.6457 218.8 107.817 216.013 120.564C213.829 130.548 213.874 140.882 215.211 151.043C224.913 155.294 235.094 158.354 245.532 160.158C246.476 159.078 247.637 158.208 248.939 157.606C250.241 157.004 251.655 156.682 253.09 156.663C256.536 142.612 258.976 128.333 260.393 113.936C260.933 108.449 261.399 102.713 264.303 98.0281C265.901 95.4486 268.425 93.0497 270.865 91.2706C273.06 89.6707 275.675 88.5233 278.384 88.4926C278.292 88.4066 278.202 88.3192 278.106 88.2367C279.306 88.3239 280.494 88.5217 281.657 88.8277L271.543 83.3272C271 83.0664 270.5 82.7252 270.059 82.3152C269.361 81.596 268.925 80.47 267.942 80.279C267.715 80.2693 267.492 80.214 267.287 80.1165C267.108 79.9517 266.978 79.7414 266.91 79.5082C266.761 79.1925 266.546 78.9125 266.28 78.6873C266.013 78.462 265.701 78.2969 265.365 78.2031C265.204 78.1556 265.038 78.1261 264.871 78.1152C265.478 78.5369 265.709 79.3633 265.581 80.0915Z" fill="#579CEF"/>
<g style="mix-blend-mode:multiply" opacity="0.2">
<path d="M272.077 184.691C272.036 184.07 271.988 183.45 271.943 182.836C271.988 183.45 272.036 184.069 272.077 184.691Z" fill="#4E97EE"/>
</g>
<path d="M270.732 181.37C269.574 182.926 267.632 183.658 265.767 184.191C252.005 188.118 237.302 185.242 224.02 179.493C225.36 181.3 226.197 185.281 226.689 188.634C230.759 191.243 235.059 193.476 239.535 195.305C246.5 198.158 254.115 199.782 261.584 198.858C262.145 198.159 262.701 197.454 263.252 196.745C266.284 192.824 269.238 188.804 272.077 184.691C272.036 184.071 271.988 183.451 271.943 182.836C271.927 182.614 271.912 182.392 271.897 182.171C271.839 181.274 271.751 180.367 271.725 179.462C271.479 180.139 271.145 180.78 270.732 181.37Z" fill="#579CEF"/>
<g style="mix-blend-mode:multiply" opacity="0.2">
<path d="M270.732 181.37C269.574 182.926 267.632 183.658 265.767 184.191C252.005 188.118 237.302 185.242 224.02 179.493C225.36 181.3 226.197 185.281 226.689 188.634C230.759 191.243 235.059 193.476 239.535 195.305C246.5 198.158 254.115 199.782 261.584 198.858C262.145 198.159 262.701 197.454 263.252 196.745C266.284 192.824 269.238 188.804 272.077 184.691C272.036 184.071 271.988 183.451 271.943 182.836C271.927 182.614 271.912 182.392 271.897 182.171C271.839 181.274 271.751 180.367 271.725 179.462C271.479 180.139 271.145 180.78 270.732 181.37Z" fill="#4E97EE"/>
</g>
<path d="M292.112 123.367C291.899 124.286 291.673 125.201 291.434 126.112C291.675 125.201 291.901 124.286 292.112 123.367Z" fill="#5C9FEF"/>
<path d="M292.546 121.39C294.222 113.24 295.561 103.283 290.897 96.1455C294.755 103.261 294.125 113.711 292.546 121.39Z" fill="#5C9FEF"/>
<path d="M290.474 129.493C289.442 132.927 288.251 136.316 286.999 139.684C288.251 136.316 289.442 132.927 290.474 129.493Z" fill="#5C9FEF"/>
<path d="M286.71 140.458C286.016 142.311 285.306 144.158 284.597 146.003C285.306 144.158 286.016 142.311 286.71 140.458Z" fill="#5C9FEF"/>
<path d="M291.431 126.12C291.156 127.159 290.865 128.193 290.557 129.223C290.864 128.193 291.155 127.159 291.431 126.12Z" fill="#5C9FEF"/>
<path d="M228.756 168.675C232.64 170.076 236.701 171.193 240.829 171.102C248.1 170.943 254.889 166.993 259.903 161.726C264.917 156.458 268.395 149.941 271.614 143.419C278.739 128.982 285.051 113.03 282.308 97.1646C281.758 93.9818 280.731 90.6864 278.385 88.4941C275.677 88.5248 273.061 89.6722 270.867 91.2721C268.427 93.0512 265.903 95.4501 264.304 98.0296C261.401 102.715 260.934 108.452 260.395 113.937C258.977 128.334 256.536 142.612 253.09 156.663C251.656 156.682 250.241 157.003 248.939 157.605C247.636 158.207 246.475 159.077 245.531 160.157C235.093 158.354 224.913 155.293 215.211 151.043C214.154 150.58 213.102 150.108 212.059 149.617C209.531 148.429 207.003 147.149 204.302 146.48C204.538 146.623 204.774 146.767 205.011 146.908C206.141 147.582 207.28 148.242 208.417 148.903C209.057 149.276 210.301 149.642 210.639 150.329C210.83 150.803 210.891 151.319 210.817 151.825C210.695 153.836 210.111 155.791 209.109 157.539C214.811 162.434 221.659 166.112 228.756 168.675Z" fill="#65A5F0"/>
<path d="M278.384 88.4934C280.73 90.6857 281.757 93.98 282.307 97.1639C285.05 113.029 278.738 128.981 271.613 143.419C268.394 149.94 264.916 156.458 259.902 161.725C254.888 166.992 248.099 170.942 240.828 171.102C236.7 171.192 232.639 170.076 228.755 168.674C221.658 166.112 214.81 162.434 209.108 157.541C209.055 157.63 209.001 157.718 208.947 157.804C208.985 157.852 209.007 157.884 209.001 157.894C207.24 160.717 205.299 161.36 203.598 161.972C203.012 162.183 202.351 162.341 201.779 162.095C201.544 161.994 200.53 160.611 199.447 159.123C199.749 160.076 200.124 161.005 200.568 161.901L222.233 177.503C222.869 177.949 223.398 178.53 223.782 179.204C223.862 179.293 223.942 179.391 224.02 179.494C237.302 185.241 252.005 188.118 265.767 184.19C267.632 183.657 269.576 182.926 270.733 181.37C271.145 180.78 271.479 180.139 271.726 179.462C271.75 179.401 271.775 179.339 271.799 179.277C271.84 179.171 271.881 179.064 271.922 178.958L284.597 146.002C285.307 144.157 286.016 142.31 286.71 140.457C286.807 140.199 286.903 139.942 286.999 139.685C288.251 136.317 289.442 132.927 290.474 129.494C290.5 129.404 290.529 129.313 290.556 129.223C290.863 128.193 291.154 127.159 291.43 126.12L291.433 126.112C291.674 125.2 291.9 124.285 292.111 123.366C292.263 122.71 292.41 122.052 292.546 121.391C294.126 113.713 294.757 103.263 290.898 96.147C289.019 92.6814 286.075 90.0078 281.658 88.8293C280.495 88.5233 279.306 88.3255 278.107 88.2383C278.202 88.3203 278.292 88.4074 278.384 88.4934Z" fill="#539AEF"/>
<path d="M196.564 155.387C196.967 155.697 198.249 157.474 199.448 159.123C200.53 160.611 201.544 161.993 201.78 162.095C202.352 162.34 203.013 162.182 203.599 161.971C205.3 161.359 207.24 160.716 209.002 157.894C209.008 157.885 208.985 157.851 208.947 157.804C208.633 157.413 206.976 155.839 206.286 155.216C204.917 153.979 203.701 152.585 202.421 151.26C200.178 148.903 197.393 147.131 194.309 146.097C191.379 145.063 188.218 145.85 185.182 145.748C184.012 145.883 182.827 145.725 181.733 145.291C180.516 144.793 179.376 144.128 178.344 143.315C178.232 143.264 178.12 143.215 178.008 143.168C177.869 143.869 177.669 144.556 177.41 145.222L190.255 154.472C190.694 154.411 191.132 154.354 191.572 154.315C193.308 154.161 195.184 154.323 196.564 155.387Z" fill="#B78858"/>
<g style="mix-blend-mode:multiply" opacity="0.6">
<path d="M94.8901 117.939L93.1836 120.617L95.0989 118.037L94.8901 117.939Z" fill="#D7EDFF"/>
</g>
<g style="mix-blend-mode:multiply" opacity="0.6">
<path d="M103.703 138.667L103.678 138.7L93.2886 130.651C91.094 129.002 90.2705 126.235 91.0871 123.908L89.9911 125.628C88.056 128.372 87.2714 131.764 87.8051 135.079C88.3387 138.394 90.1483 141.369 92.8468 143.366L182.027 216.773C183.653 218.066 185.904 219.174 188.451 220C189.769 215.922 191.131 211.859 192.538 207.812L103.703 138.667Z" fill="#D7EDFF"/>
</g>
<path d="M219.61 204.696C217.905 204.317 216.218 203.867 214.548 203.348C213.192 202.933 211.86 202.448 210.554 201.895L207.206 206.15C209.952 207.661 212.82 208.938 215.78 209.968L219.61 204.696Z" fill="#4E97EE"/>
<g style="mix-blend-mode:multiply" opacity="0.6">
<path d="M219.61 204.696C217.905 204.317 216.218 203.867 214.548 203.348C213.192 202.933 211.86 202.448 210.554 201.895L207.206 206.15C209.952 207.661 212.82 208.938 215.78 209.968L219.61 204.696Z" fill="#D7EDFF"/>
</g>
<path d="M219.61 204.696L221.376 202.264C221.421 197.547 221.469 192.905 221.277 188.261L210.555 201.894C211.86 202.447 213.193 202.932 214.548 203.347C216.215 203.869 217.902 204.319 219.61 204.696Z" fill="#60A1F0"/>
<g style="mix-blend-mode:multiply" opacity="0.6">
<path d="M219.61 204.696L221.376 202.264C221.421 197.547 221.469 192.905 221.277 188.261L210.555 201.894C211.86 202.447 213.193 202.932 214.548 203.347C216.215 203.869 217.902 204.319 219.61 204.696Z" fill="#D7EDFF"/>
</g>
<path d="M221.377 202.264L227.292 194.118C227.292 194.118 227.129 191.626 226.69 188.633C225.476 187.851 224.237 187.002 222.991 186.083L221.278 188.26C221.47 192.905 221.421 197.546 221.377 202.264Z" fill="#579CEF"/>
<g style="mix-blend-mode:multiply" opacity="0.6">
<path d="M221.377 202.264L227.292 194.118C227.292 194.118 227.129 191.626 226.69 188.633C225.476 187.851 224.237 187.002 222.991 186.083L221.278 188.26C221.47 192.905 221.421 197.546 221.377 202.264Z" fill="#D7EDFF"/>
</g>
<path d="M226.689 188.634C226.198 185.281 225.361 181.3 224.02 179.493C223.985 179.477 223.949 179.462 223.914 179.447C224.91 181.428 224.646 183.998 223.02 186.046L222.99 186.083C224.236 187.002 225.475 187.852 226.689 188.634Z" fill="#579CEF"/>
<g style="mix-blend-mode:multiply" opacity="0.2">
<path d="M226.689 188.634C226.198 185.281 225.361 181.3 224.02 179.493C223.985 179.477 223.949 179.462 223.914 179.447C224.91 181.428 224.646 183.998 223.02 186.046L222.99 186.083C224.236 187.002 225.475 187.852 226.689 188.634Z" fill="#4E97EE"/>
</g>
<g style="mix-blend-mode:multiply" opacity="0.6">
<path d="M226.689 188.634C226.198 185.281 225.361 181.3 224.02 179.493C223.985 179.477 223.949 179.462 223.914 179.447C224.91 181.428 224.646 183.998 223.02 186.046L222.99 186.083C224.236 187.002 225.475 187.852 226.689 188.634Z" fill="#D7EDFF"/>
</g>
<path d="M223.782 179.204C223.828 179.284 223.871 179.365 223.912 179.447C223.948 179.462 223.983 179.477 224.019 179.493C223.942 179.389 223.863 179.293 223.782 179.204Z" fill="#539AEF"/>
<g style="mix-blend-mode:multiply" opacity="0.6">
<path d="M223.782 179.204C223.828 179.284 223.871 179.365 223.912 179.447C223.948 179.462 223.983 179.477 224.019 179.493C223.942 179.389 223.863 179.293 223.782 179.204Z" fill="#D7EDFF"/>
</g>
<path d="M107.123 101.837L107.119 101.843L95.098 118.038L93.1827 120.618L92.1072 122.066C91.9718 122.251 91.8473 122.443 91.7344 122.642C91.7711 122.589 91.8023 122.534 91.8409 122.483L107.123 101.837Z" fill="#F2F9FF"/>
<path d="M115.548 100.672L115.448 100.6C114.196 99.7206 112.662 99.34 111.145 99.5321C112.702 99.3674 114.267 99.7724 115.548 100.672Z" fill="#F2F9FF"/>
<path d="M161.575 142.101C161.431 142.332 161.277 142.557 161.118 142.778C161.084 142.826 161.049 142.874 161.014 142.922C160.856 143.135 160.693 143.345 160.521 143.549C160.495 143.581 160.465 143.613 160.437 143.645C160.28 143.829 160.117 144.007 159.95 144.181C159.915 144.217 159.881 144.254 159.846 144.288C159.661 144.477 159.469 144.659 159.271 144.836C159.254 144.851 159.238 144.869 159.22 144.884C158.922 145.148 158.651 145.434 158.358 145.665L162.107 148.414C161.956 147.803 161.882 147.176 161.888 146.547C161.939 145.875 162.078 145.214 162.303 144.579C162.885 142.745 163.63 140.966 164.531 139.265C164.929 138.455 165.441 137.707 166.051 137.041L165.195 136.425C164.512 137.487 162.522 140.582 161.575 142.101Z" fill="#F2F9FF"/>
<path d="M110.911 99.5651C110.951 99.5592 110.989 99.55 111.029 99.5449C110.989 99.5506 110.95 99.5586 110.911 99.5651Z" fill="#F2F9FF"/>
<path d="M103.702 138.667L192.537 207.812L196.159 210.63C196.279 210.721 196.403 210.803 196.528 210.882C199.115 212.513 202.785 211.747 204.927 209.05L207.207 206.151L210.554 201.894L221.277 188.261L222.989 186.084L223.019 186.047C224.645 183.998 224.91 181.428 223.913 179.448C223.872 179.365 223.828 179.284 223.782 179.204C223.398 178.53 222.869 177.949 222.233 177.503L200.566 161.9L190.252 154.473L177.408 145.222C177.004 146.266 176.459 147.25 175.789 148.146C175.49 148.546 174.927 148.92 175.035 149.446C175.282 150.652 175.898 151.821 175.727 153.046C175.522 154.514 174.887 154.48 173.722 155.399C173.519 155.559 173.232 155.724 173.028 155.571C172.94 155.488 172.88 155.381 172.855 155.263C172.329 153.619 171.803 151.976 171.278 150.332C171.171 151.806 171.135 153.349 170.767 154.767L203.617 178.856C205.354 180.105 205.59 182.603 204.144 184.434L200.412 189.259C198.966 191.09 196.401 191.55 194.683 190.287L149.294 155.576C148.884 155.266 148.541 154.877 148.285 154.432C148.028 153.987 147.864 153.495 147.801 152.985C147.738 152.476 147.778 151.958 147.919 151.465C148.06 150.971 148.298 150.51 148.62 150.11L151.826 145.893C152.39 145.151 153.188 144.621 154.091 144.39C154.994 144.159 155.949 144.239 156.8 144.619C157.498 142.218 159.981 137.25 161.904 134.058L126.333 108.44L103.702 138.667Z" fill="#F2F9FF"/>
<path d="M93.2891 130.65L103.678 138.7L103.704 138.666L126.335 108.44L126.422 108.323L115.573 100.688C115.565 100.682 115.557 100.678 115.549 100.672C114.267 99.7724 112.703 99.3673 111.145 99.532C111.106 99.5363 111.067 99.539 111.028 99.544C110.989 99.5491 110.95 99.5581 110.911 99.564C110.182 99.6626 109.48 99.9042 108.844 100.275C108.208 100.646 107.652 101.138 107.207 101.724L107.125 101.836L91.8415 122.481C91.8029 122.534 91.7718 122.588 91.735 122.641C91.4637 123.032 91.246 123.458 91.0875 123.907C90.2709 126.234 91.0945 129.002 93.2891 130.65ZM107.251 117.808C107.468 117.538 107.782 117.363 108.126 117.321C108.47 117.279 108.817 117.374 109.093 117.585C109.234 117.68 109.354 117.803 109.447 117.945C109.54 118.088 109.604 118.248 109.634 118.415C109.665 118.583 109.662 118.755 109.625 118.921C109.588 119.088 109.518 119.245 109.42 119.384C109.203 119.655 108.889 119.83 108.545 119.872C108.2 119.914 107.853 119.819 107.578 119.608C107.437 119.512 107.317 119.389 107.224 119.246C107.131 119.104 107.068 118.944 107.037 118.776C107.007 118.609 107.01 118.437 107.047 118.271C107.083 118.105 107.153 117.947 107.251 117.808ZM111.74 116.287C111.523 116.558 111.208 116.733 110.863 116.775C110.519 116.818 110.171 116.724 109.895 116.513C109.753 116.418 109.633 116.296 109.539 116.154C109.446 116.011 109.382 115.852 109.351 115.685C109.32 115.517 109.323 115.345 109.36 115.179C109.396 115.013 109.465 114.855 109.563 114.716C109.781 114.446 110.096 114.271 110.44 114.228C110.785 114.186 111.133 114.28 111.409 114.49C111.551 114.585 111.671 114.707 111.765 114.849C111.858 114.991 111.922 115.151 111.953 115.318C111.984 115.486 111.981 115.657 111.944 115.824C111.908 115.99 111.838 116.147 111.74 116.286V116.287ZM106.426 112.454C106.644 112.183 106.958 112.009 107.302 111.967C107.646 111.925 107.993 112.019 108.269 112.23C108.41 112.324 108.531 112.446 108.625 112.588C108.718 112.73 108.782 112.889 108.814 113.056C108.845 113.223 108.842 113.395 108.806 113.561C108.77 113.727 108.701 113.885 108.603 114.024C108.386 114.294 108.072 114.469 107.727 114.511C107.383 114.553 107.036 114.458 106.761 114.248C106.62 114.153 106.499 114.031 106.406 113.889C106.312 113.747 106.248 113.588 106.217 113.421C106.186 113.254 106.188 113.082 106.224 112.916C106.26 112.75 106.329 112.593 106.426 112.454ZM104.124 115.537C104.341 115.267 104.654 115.093 104.998 115.052C105.341 115.011 105.687 115.105 105.962 115.316C106.103 115.411 106.223 115.533 106.317 115.676C106.41 115.818 106.474 115.978 106.504 116.145C106.535 116.312 106.532 116.484 106.496 116.65C106.46 116.816 106.391 116.974 106.293 117.113C106.076 117.383 105.763 117.557 105.419 117.598C105.076 117.64 104.729 117.545 104.455 117.334C104.314 117.239 104.194 117.116 104.101 116.974C104.008 116.831 103.944 116.672 103.914 116.505C103.883 116.337 103.885 116.166 103.922 116C103.958 115.834 104.027 115.676 104.124 115.537ZM101.733 118.739C101.95 118.469 102.263 118.295 102.606 118.254C102.949 118.214 103.295 118.309 103.568 118.521C103.709 118.617 103.829 118.74 103.922 118.882C104.014 119.025 104.078 119.185 104.108 119.352C104.139 119.52 104.136 119.692 104.099 119.858C104.062 120.024 103.993 120.181 103.895 120.321C103.679 120.591 103.366 120.765 103.023 120.806C102.679 120.847 102.334 120.751 102.061 120.539C101.92 120.443 101.8 120.32 101.708 120.177C101.615 120.034 101.552 119.874 101.522 119.707C101.491 119.54 101.494 119.368 101.531 119.202C101.567 119.036 101.636 118.878 101.733 118.739ZM104.85 121.018C105.066 120.748 105.38 120.574 105.723 120.533C106.067 120.491 106.413 120.587 106.687 120.798C106.828 120.894 106.948 121.017 107.041 121.161C107.133 121.304 107.197 121.464 107.227 121.631C107.257 121.799 107.253 121.971 107.216 122.138C107.179 122.304 107.109 122.461 107.011 122.601C106.795 122.871 106.481 123.046 106.137 123.087C105.793 123.128 105.447 123.033 105.173 122.821C105.033 122.725 104.913 122.601 104.82 122.458C104.728 122.315 104.665 122.155 104.635 121.987C104.604 121.82 104.608 121.648 104.645 121.481C104.682 121.315 104.751 121.158 104.849 121.018H104.85Z" fill="#6DB2F8"/>
<path d="M106.761 114.247C107.036 114.458 107.383 114.552 107.727 114.51C108.072 114.469 108.386 114.294 108.603 114.023C108.701 113.884 108.77 113.727 108.806 113.561C108.842 113.395 108.845 113.223 108.814 113.056C108.782 112.889 108.718 112.729 108.625 112.587C108.531 112.446 108.41 112.324 108.269 112.229C107.993 112.019 107.646 111.925 107.302 111.967C106.958 112.009 106.644 112.183 106.426 112.453C106.329 112.592 106.26 112.75 106.224 112.916C106.188 113.082 106.186 113.253 106.217 113.42C106.248 113.587 106.312 113.747 106.406 113.889C106.499 114.031 106.62 114.153 106.761 114.247Z" fill="#88C0F9"/>
<path d="M109.562 114.717C109.464 114.856 109.395 115.013 109.359 115.179C109.322 115.345 109.319 115.517 109.35 115.685C109.381 115.852 109.445 116.012 109.538 116.154C109.632 116.296 109.753 116.419 109.894 116.514C110.17 116.724 110.518 116.818 110.863 116.776C111.207 116.733 111.522 116.558 111.739 116.287C111.838 116.148 111.907 115.991 111.944 115.824C111.981 115.658 111.983 115.486 111.953 115.319C111.922 115.151 111.858 114.992 111.764 114.849C111.671 114.707 111.55 114.585 111.408 114.49C111.132 114.28 110.784 114.186 110.44 114.229C110.095 114.271 109.78 114.446 109.562 114.717Z" fill="#88C0F9"/>
<path d="M104.454 117.334C104.729 117.545 105.075 117.64 105.418 117.599C105.762 117.558 106.076 117.383 106.292 117.113C106.39 116.974 106.459 116.817 106.495 116.651C106.532 116.485 106.535 116.313 106.504 116.145C106.473 115.978 106.409 115.819 106.316 115.676C106.223 115.534 106.102 115.412 105.961 115.316C105.687 115.106 105.341 115.011 104.997 115.052C104.654 115.094 104.34 115.268 104.123 115.537C104.026 115.677 103.957 115.834 103.921 116C103.885 116.166 103.882 116.338 103.913 116.505C103.944 116.672 104.007 116.832 104.1 116.974C104.193 117.117 104.314 117.239 104.454 117.334Z" fill="#88C0F9"/>
<path d="M109.419 119.384C109.517 119.245 109.587 119.088 109.624 118.922C109.661 118.755 109.664 118.583 109.634 118.416C109.603 118.248 109.539 118.088 109.446 117.946C109.353 117.803 109.233 117.68 109.092 117.585C108.816 117.374 108.469 117.279 108.125 117.321C107.781 117.363 107.467 117.538 107.25 117.808C107.152 117.947 107.082 118.105 107.046 118.271C107.009 118.437 107.006 118.609 107.036 118.777C107.067 118.944 107.13 119.104 107.223 119.247C107.316 119.389 107.436 119.512 107.577 119.608C107.852 119.819 108.199 119.914 108.544 119.872C108.888 119.83 109.202 119.655 109.419 119.384Z" fill="#88C0F9"/>
<path d="M102.06 120.54C102.333 120.752 102.679 120.847 103.022 120.807C103.365 120.766 103.679 120.592 103.894 120.321C103.992 120.182 104.062 120.025 104.098 119.859C104.135 119.692 104.138 119.521 104.107 119.353C104.077 119.186 104.014 119.026 103.921 118.883C103.828 118.74 103.708 118.617 103.567 118.522C103.294 118.31 102.948 118.215 102.605 118.255C102.262 118.296 101.949 118.47 101.733 118.74C101.635 118.879 101.566 119.036 101.53 119.203C101.493 119.369 101.49 119.541 101.521 119.708C101.551 119.875 101.615 120.035 101.707 120.178C101.8 120.321 101.919 120.443 102.06 120.54Z" fill="#88C0F9"/>
<path d="M107.01 122.601C107.109 122.462 107.179 122.304 107.216 122.138C107.253 121.972 107.256 121.799 107.226 121.632C107.196 121.464 107.133 121.304 107.04 121.161C106.948 121.018 106.828 120.894 106.687 120.798C106.413 120.587 106.067 120.492 105.723 120.533C105.379 120.574 105.066 120.749 104.849 121.019C104.751 121.158 104.682 121.315 104.645 121.482C104.608 121.648 104.604 121.82 104.635 121.988C104.665 122.155 104.728 122.315 104.82 122.458C104.912 122.601 105.032 122.725 105.173 122.821C105.447 123.033 105.793 123.128 106.137 123.087C106.481 123.046 106.794 122.871 107.01 122.601Z" fill="#88C0F9"/>
<path d="M133.438 124.46C132.178 123.913 130.773 123.796 129.439 124.126C128.105 124.456 126.918 125.216 126.058 126.288L121.299 132.337C119.3 134.856 119.748 138.367 122.299 140.179L189.647 189.977C192.197 191.79 196.003 191.129 198.148 188.502L203.688 181.58C205.833 178.953 205.482 175.37 202.904 173.577C202.904 173.576 138.625 128.871 133.438 124.46Z" fill="#BEE0FF"/>
<path d="M160.521 143.548C160.692 143.344 160.855 143.135 161.014 142.921C160.855 143.135 160.691 143.344 160.521 143.548Z" fill="#CCA369"/>
<path d="M159.948 144.181C160.116 144.007 160.278 143.828 160.436 143.645C160.278 143.828 160.116 144.007 159.948 144.181Z" fill="#CCA369"/>
<path d="M161.118 142.777C161.278 142.556 161.431 142.332 161.575 142.101C161.431 142.332 161.277 142.556 161.118 142.777Z" fill="#CCA369"/>
<path d="M159.847 144.289C159.661 144.478 159.469 144.66 159.271 144.837C159.469 144.66 159.661 144.478 159.847 144.289Z" fill="#CCA369"/>
<path d="M156.735 145.981C156.788 146.013 156.844 146.039 156.903 146.058C158.166 145.45 159.007 144.22 159.715 143.007C161.242 140.389 162.456 137.569 164.323 135.181C164.548 134.858 164.836 134.583 165.17 134.373C165.443 134.239 165.735 134.145 166.036 134.095C169.738 133.299 173.55 132.737 177.307 133.211C177.371 133.219 177.437 133.228 177.503 133.241L169.065 135.523C168.634 135.64 168.198 135.759 167.781 135.917C167.491 136.024 167.212 136.157 166.947 136.315C166.619 136.518 166.318 136.762 166.051 137.041C165.442 137.707 164.93 138.456 164.531 139.265C163.631 140.966 162.886 142.745 162.304 144.579C162.079 145.214 161.939 145.876 161.889 146.547C161.883 147.176 161.956 147.803 162.107 148.414L162.11 148.427C162.555 150.499 163.219 152.517 164.09 154.448C164.138 154.599 164.24 154.727 164.376 154.808C164.482 154.844 164.597 154.848 164.705 154.819C165.023 154.756 165.325 154.63 165.593 154.446C165.237 154.676 164.764 154.633 164.485 154.78C164.755 154.634 164.988 154.428 165.167 154.179C165.347 153.93 165.467 153.643 165.519 153.34C165.62 152.728 165.431 152.108 165.288 151.502C164.854 149.618 164.838 147.662 165.241 145.771C165.644 143.88 166.456 142.1 167.62 140.556C167.955 140.105 168.338 139.691 168.761 139.322C169.321 138.866 169.94 138.489 170.601 138.2C173.152 137.027 176.004 136.647 178.583 135.537C178.417 135.665 178.249 135.789 178.083 135.917C175.659 136.828 172.747 138.27 172.221 138.537C170.202 139.561 167.296 144.412 167.066 144.825C166.952 145.029 166.494 149.787 166.408 153.629C166.349 156.239 166.461 158.426 166.969 158.473C168.166 158.498 169.194 157.748 169.893 156.74C169.408 157.451 168.702 157.982 167.885 158.252C168.788 156.996 168.836 155.84 168.78 154.328C168.665 151.179 168.541 147.965 169.415 144.937C169.642 144.036 170.048 143.189 170.611 142.448C171.006 141.993 171.452 141.584 171.939 141.228C174.174 139.461 176.629 137.995 179.244 136.865C177.222 138.267 175.188 139.724 174.89 140.124C174.51 140.634 170.74 147.773 170.769 148.311C170.817 148.811 170.929 149.301 171.102 149.772L171.28 150.329C171.805 151.973 172.331 153.617 172.857 155.26C172.882 155.378 172.942 155.486 173.03 155.568C173.234 155.721 173.521 155.557 173.724 155.397C174.889 154.477 175.524 154.511 175.729 153.044C175.9 151.819 175.284 150.649 175.037 149.443C174.93 148.917 175.492 148.543 175.791 148.144C176.461 147.247 177.006 146.263 177.41 145.219C177.669 144.553 177.869 143.866 178.008 143.165C178.12 143.213 178.232 143.262 178.343 143.312C179.375 144.125 180.516 144.79 181.732 145.288C182.827 145.723 184.011 145.88 185.181 145.746C188.218 145.847 191.38 145.06 194.308 146.095C197.393 147.128 200.179 148.9 202.421 151.257C203.702 152.583 204.917 153.976 206.287 155.213C206.977 155.837 208.634 157.41 208.948 157.801C209.003 157.714 209.057 157.627 209.11 157.538C210.112 155.79 210.696 153.834 210.817 151.823C210.891 151.318 210.83 150.802 210.64 150.328C210.301 149.641 209.058 149.273 208.418 148.901C207.28 148.241 206.142 147.581 205.011 146.907C204.774 146.766 204.539 146.621 204.302 146.479C203.514 146.005 202.731 145.524 201.952 145.036C200.802 144.313 199.663 143.571 198.544 142.801C194.945 140.324 192.004 137.135 188.55 134.575C186.46 133.026 185.154 131.864 182.635 131.216C181.206 130.864 179.724 130.777 178.263 130.96L167.317 130.665C166.661 130.648 164.531 130.825 163.988 131.192C163.57 131.474 162.799 132.574 161.906 134.055C159.983 137.247 157.5 142.216 156.802 144.616C156.585 145.361 156.54 145.859 156.735 145.981Z" fill="#CCA369"/>
<path d="M158.358 145.666C158.651 145.435 158.921 145.149 159.219 144.885C159.237 144.869 159.253 144.852 159.27 144.836C159.468 144.66 159.659 144.477 159.846 144.289C159.88 144.253 159.914 144.217 159.949 144.182C160.116 144.008 160.279 143.829 160.437 143.646C160.463 143.613 160.493 143.582 160.52 143.549C160.691 143.346 160.856 143.137 161.013 142.923C161.049 142.875 161.083 142.827 161.117 142.779C161.277 142.558 161.43 142.333 161.574 142.102C162.522 140.584 164.511 137.488 165.194 136.427L165.432 136.059C165.432 136.059 166.609 136.006 167.78 135.919C168.197 135.761 168.632 135.642 169.064 135.525L177.502 133.242C177.437 133.229 177.371 133.219 177.306 133.211C173.549 132.738 169.738 133.3 166.035 134.096C165.735 134.146 165.443 134.24 165.169 134.374C164.836 134.584 164.548 134.858 164.322 135.182C162.456 137.569 161.242 140.389 159.715 143.007C159.007 144.221 158.165 145.451 156.903 146.058C156.884 146.067 156.866 146.077 156.848 146.085C157.115 146.138 157.39 146.127 157.652 146.055C157.914 145.982 158.156 145.849 158.358 145.666Z" fill="#B78858"/>
<path d="M166.359 153.695C166.319 153.75 166.277 153.804 166.235 153.858C166.279 153.805 166.319 153.75 166.359 153.695Z" fill="#CCA369"/>
<path d="M165.865 154.24C165.805 154.292 165.741 154.34 165.677 154.387C165.74 154.339 165.803 154.292 165.865 154.24Z" fill="#CCA369"/>
<path d="M166.118 153.992C166.079 154.035 166.039 154.076 165.997 154.116C166.039 154.076 166.078 154.035 166.118 153.992Z" fill="#CCA369"/>
<path d="M165.677 154.385C165.741 154.338 165.803 154.291 165.863 154.239C165.91 154.199 165.954 154.157 165.996 154.114C166.039 154.071 166.076 154.034 166.116 153.992C166.156 153.95 166.198 153.902 166.237 153.854C166.275 153.807 166.319 153.75 166.358 153.694C166.373 153.673 166.391 153.652 166.407 153.63C166.493 149.788 166.951 145.03 167.064 144.827C167.295 144.413 170.201 139.562 172.22 138.538C172.746 138.272 175.659 136.829 178.081 135.918C178.248 135.791 178.416 135.666 178.582 135.538C176.003 136.648 173.151 137.028 170.6 138.201C169.939 138.49 169.32 138.868 168.76 139.323C168.337 139.692 167.954 140.106 167.619 140.557C166.455 142.101 165.643 143.881 165.24 145.772C164.837 147.663 164.853 149.619 165.286 151.504C165.43 152.109 165.619 152.729 165.518 153.341C165.466 153.644 165.345 153.931 165.166 154.18C164.987 154.43 164.754 154.635 164.483 154.781C164.763 154.633 165.236 154.677 165.592 154.448C165.595 154.445 165.6 154.444 165.604 154.441C165.629 154.424 165.65 154.402 165.677 154.385Z" fill="#B78858"/>
<path d="M170.651 155.176C170.633 155.232 170.617 155.288 170.599 155.343C170.617 155.29 170.634 155.234 170.651 155.176Z" fill="#CCA369"/>
<path d="M170.477 155.668C170.482 155.655 170.487 155.643 170.492 155.63C170.487 155.643 170.482 155.655 170.477 155.668Z" fill="#CCA369"/>
<path d="M171.1 149.775C170.928 149.304 170.816 148.813 170.768 148.314C170.739 147.775 174.508 140.637 174.889 140.127C175.187 139.727 177.22 138.27 179.243 136.868C176.628 137.998 174.172 139.464 171.938 141.23C171.451 141.586 171.005 141.996 170.609 142.451C170.047 143.192 169.64 144.038 169.414 144.94C168.54 147.968 168.663 151.182 168.779 154.331C168.835 155.842 168.786 156.998 167.884 158.255C168.701 157.985 169.407 157.454 169.892 156.743C170.128 156.407 170.325 156.045 170.478 155.665C170.482 155.653 170.487 155.642 170.492 155.631C170.53 155.535 170.566 155.438 170.598 155.34C170.617 155.287 170.632 155.231 170.649 155.177C170.692 155.041 170.731 154.905 170.767 154.767C171.135 153.35 171.171 151.806 171.278 150.333L171.1 149.775Z" fill="#B78858"/>
</svg>
