<?xml version="1.0" standalone="no"?>
<!DOCTYPE svg PUBLIC "-//W3C//DTD SVG 20010904//EN"
 "http://www.w3.org/TR/2001/REC-SVG-20010904/DTD/svg10.dtd">
<svg version="1.0" xmlns="http://www.w3.org/2000/svg"
 width="64.000000pt" height="64.000000pt" viewBox="0 0 64.000000 64.000000"
 preserveAspectRatio="xMidYMid meet">

<g transform="translate(0.000000,64.000000) scale(0.100000,-0.100000)"
fill="#000000" stroke="none">
<path d="M250 591 c-34 -11 -93 -42 -88 -46 2 -3 24 6 49 18 56 28 155 29 214
3 36 -16 38 -19 20 -27 -18 -8 -17 -8 5 -6 20 2 25 8 27 32 1 17 -1 22 -4 12
-3 -13 -10 -16 -21 -11 -81 34 -145 42 -202 25z"/>
<path d="M544 586 c-11 -28 1 -51 28 -54 31 -4 48 29 28 53 -16 19 -49 19 -56
1z"/>
<path d="M110 580 c0 -5 5 -10 10 -10 6 0 10 5 10 10 0 6 -4 10 -10 10 -5 0
-10 -4 -10 -10z"/>
<path d="M40 530 c0 -5 5 -10 10 -10 6 0 10 5 10 10 0 6 -4 10 -10 10 -5 0
-10 -4 -10 -10z"/>
<path d="M227 489 c-45 -24 -86 -83 -93 -135 -5 -37 -4 -36 14 14 22 62 44 87
94 113 48 24 68 24 68 -1 0 -13 -14 -25 -44 -39 -104 -46 -101 -195 4 -239 29
-13 40 -23 40 -39 0 -30 13 -36 59 -23 74 20 141 101 140 170 0 17 -6 7 -18
-28 -26 -76 -86 -132 -141 -132 -36 0 -23 34 20 52 105 44 108 193 4 239 -35
16 -44 25 -44 44 0 22 -5 25 -32 25 -18 -1 -50 -10 -71 -21z m128 -95 c23 -9
47 -61 39 -87 -12 -39 -35 -57 -74 -57 -60 0 -93 55 -66 109 20 38 57 51 101
35z"/>
<path d="M282 374 c-28 -19 -30 -74 -4 -97 42 -38 102 -8 102 51 0 32 -29 62
-60 62 -9 0 -26 -7 -38 -16z m58 -14 c12 -8 12 -10 -4 -16 -16 -6 -17 -8 -2
-16 33 -18 7 -56 -29 -42 -23 9 -18 23 8 17 22 -5 22 -4 -3 15 -20 17 -22 22
-11 36 15 18 20 19 41 6z"/>
<path d="M68 472 c10 -7 9 -17 -4 -48 -26 -58 -23 -158 6 -217 28 -60 38 -56
10 4 -26 58 -27 159 -1 214 11 22 20 34 20 28 1 -7 5 -13 10 -13 5 0 7 9 4 20
-4 14 -14 20 -32 20 -17 0 -22 -3 -13 -8z"/>
<path d="M540 476 c0 -2 9 -23 20 -47 13 -29 20 -66 20 -107 0 -70 -25 -147
-40 -122 -13 21 -19 9 -9 -18 5 -14 17 -22 31 -22 18 0 20 2 9 9 -13 8 -12 15
4 51 26 57 25 151 -3 213 -17 39 -32 59 -32 43z"/>
<path d="M33 124 c-3 -8 2 -23 11 -32 15 -15 17 -15 32 0 9 9 14 24 11 32 -8
21 -46 21 -54 0z"/>
<path d="M570 116 c0 -9 5 -16 10 -16 6 0 10 4 10 9 0 6 -4 13 -10 16 -5 3
-10 -1 -10 -9z"/>
<path d="M178 113 c-12 -3 -18 -14 -17 -31 1 -16 3 -20 6 -10 4 15 7 15 46 -3
58 -26 154 -25 218 2 27 12 49 25 49 30 0 5 -19 -1 -42 -13 -57 -30 -146 -35
-203 -13 -45 17 -56 29 -32 38 15 7 -2 6 -25 0z"/>
<path d="M110 80 c0 -5 5 -10 10 -10 6 0 10 5 10 10 0 6 -4 10 -10 10 -5 0
-10 -4 -10 -10z"/>
<path d="M480 50 c0 -5 5 -10 10 -10 6 0 10 5 10 10 0 6 -4 10 -10 10 -5 0
-10 -4 -10 -10z"/>
</g>
</svg>
